{
	"asset":{
		"generator":"Khronos glTF Blender I/O v3.5.30",
		"version":"2.0"
	},
	"extensionsUsed":[
		"KHR_lights_punctual",
		"KHR_materials_specular",
		"KHR_materials_ior"
	],
	"extensionsRequired":[
		"KHR_lights_punctual"
	],
	"extensions":{
		"KHR_lights_punctual":{
			"lights":[
				{
					"color":[
						1,
						1,
						1
					],
					"intensity":54351.41306588226,
					"type":"point",
					"name":"Light"
				}
			]
		}
	},
	"scene":0,
	"scenes":[
		{
			"name":"Scene",
			"nodes":[
				0,
				1,
				14
			]
		}
	],
	"nodes":[
		{
			"extensions":{
				"KHR_lights_punctual":{
					"light":0
				}
			},
			"name":"Light",
			"rotation":[
				-0.28416627645492554,
				0.7269423007965088,
				0.34203392267227173,
				0.5232754945755005
			],
			"translation":[
				4.076245307922363,
				5.903861999511719,
				-1.0054539442062378
			]
		},
		{
			"camera":0,
			"name":"Camera",
			"rotation":[
				-0.20997299253940582,
				0.3857799470424652,
				0.09062844514846802,
				0.8937962055206299
			],
			"translation":[
				7.358891487121582,
				4.958309173583984,
				6.925790786743164
			]
		},
		{
			"name":"Neck",
			"translation":[
				0,
				3,
				0
			]
		},
		{
			"name":"Arm.L",
			"rotation":[
				1,
				0,
				-4.371138828673793e-08,
				0
			],
			"translation":[
				0,
				3,
				-1.5
			]
		},
		{
			"name":"Arm.R",
			"rotation":[
				1,
				0,
				-4.371138828673793e-08,
				0
			],
			"translation":[
				0,
				3,
				1.5
			]
		},
		{
			"name":"Leg.R",
			"rotation":[
				1,
				0,
				-4.371138828673793e-08,
				0
			],
			"translation":[
				0,
				0,
				0.5
			]
		},
		{
			"name":"Leg.L",
			"rotation":[
				1,
				0,
				-4.371138828673793e-08,
				0
			],
			"translation":[
				0,
				0,
				-0.5
			]
		},
		{
			"children":[
				2,
				3,
				4,
				5,
				6
			],
			"name":"Root"
		},
		{
			"mesh":0,
			"name":"Head",
			"skin":0
		},
		{
			"mesh":1,
			"name":"LeftArm",
			"skin":0
		},
		{
			"mesh":2,
			"name":"LeftLeg",
			"skin":0
		},
		{
			"mesh":3,
			"name":"RightArm",
			"skin":0
		},
		{
			"mesh":4,
			"name":"RightLeg",
			"skin":0
		},
		{
			"mesh":5,
			"name":"Torso",
			"skin":0
		},
		{
			"children":[
				8,
				9,
				10,
				11,
				12,
				13,
				7
			],
			"name":"Armature",
			"translation":[
				0,
				3,
				0
			]
		}
	],
	"cameras":[
		{
			"name":"Camera",
			"perspective":{
				"aspectRatio":1.7777777777777777,
				"yfov":0.39959652046304894,
				"zfar":100,
				"znear":0.10000000149011612
			},
			"type":"perspective"
		}
	],
	"animations":[
		{
			"channels":[
				{
					"sampler":0,
					"target":{
						"node":7,
						"path":"translation"
					}
				},
				{
					"sampler":1,
					"target":{
						"node":7,
						"path":"rotation"
					}
				},
				{
					"sampler":2,
					"target":{
						"node":7,
						"path":"scale"
					}
				},
				{
					"sampler":3,
					"target":{
						"node":2,
						"path":"translation"
					}
				},
				{
					"sampler":4,
					"target":{
						"node":2,
						"path":"rotation"
					}
				},
				{
					"sampler":5,
					"target":{
						"node":2,
						"path":"scale"
					}
				},
				{
					"sampler":6,
					"target":{
						"node":3,
						"path":"translation"
					}
				},
				{
					"sampler":7,
					"target":{
						"node":3,
						"path":"rotation"
					}
				},
				{
					"sampler":8,
					"target":{
						"node":3,
						"path":"scale"
					}
				},
				{
					"sampler":9,
					"target":{
						"node":4,
						"path":"translation"
					}
				},
				{
					"sampler":10,
					"target":{
						"node":4,
						"path":"rotation"
					}
				},
				{
					"sampler":11,
					"target":{
						"node":4,
						"path":"scale"
					}
				},
				{
					"sampler":12,
					"target":{
						"node":5,
						"path":"translation"
					}
				},
				{
					"sampler":13,
					"target":{
						"node":5,
						"path":"rotation"
					}
				},
				{
					"sampler":14,
					"target":{
						"node":5,
						"path":"scale"
					}
				},
				{
					"sampler":15,
					"target":{
						"node":6,
						"path":"translation"
					}
				},
				{
					"sampler":16,
					"target":{
						"node":6,
						"path":"rotation"
					}
				},
				{
					"sampler":17,
					"target":{
						"node":6,
						"path":"scale"
					}
				}
			],
			"name":"Idle",
			"samplers":[
				{
					"input":41,
					"interpolation":"LINEAR",
					"output":42
				},
				{
					"input":41,
					"interpolation":"LINEAR",
					"output":43
				},
				{
					"input":41,
					"interpolation":"LINEAR",
					"output":44
				},
				{
					"input":41,
					"interpolation":"LINEAR",
					"output":45
				},
				{
					"input":41,
					"interpolation":"LINEAR",
					"output":46
				},
				{
					"input":41,
					"interpolation":"LINEAR",
					"output":47
				},
				{
					"input":41,
					"interpolation":"LINEAR",
					"output":48
				},
				{
					"input":41,
					"interpolation":"LINEAR",
					"output":49
				},
				{
					"input":41,
					"interpolation":"LINEAR",
					"output":50
				},
				{
					"input":41,
					"interpolation":"LINEAR",
					"output":51
				},
				{
					"input":41,
					"interpolation":"LINEAR",
					"output":52
				},
				{
					"input":41,
					"interpolation":"LINEAR",
					"output":53
				},
				{
					"input":41,
					"interpolation":"LINEAR",
					"output":54
				},
				{
					"input":41,
					"interpolation":"LINEAR",
					"output":55
				},
				{
					"input":41,
					"interpolation":"LINEAR",
					"output":56
				},
				{
					"input":41,
					"interpolation":"LINEAR",
					"output":57
				},
				{
					"input":41,
					"interpolation":"LINEAR",
					"output":58
				},
				{
					"input":41,
					"interpolation":"LINEAR",
					"output":59
				}
			]
		},
		{
			"channels":[
				{
					"sampler":0,
					"target":{
						"node":7,
						"path":"translation"
					}
				},
				{
					"sampler":1,
					"target":{
						"node":7,
						"path":"rotation"
					}
				},
				{
					"sampler":2,
					"target":{
						"node":7,
						"path":"scale"
					}
				},
				{
					"sampler":3,
					"target":{
						"node":2,
						"path":"translation"
					}
				},
				{
					"sampler":4,
					"target":{
						"node":2,
						"path":"rotation"
					}
				},
				{
					"sampler":5,
					"target":{
						"node":2,
						"path":"scale"
					}
				},
				{
					"sampler":6,
					"target":{
						"node":3,
						"path":"translation"
					}
				},
				{
					"sampler":7,
					"target":{
						"node":3,
						"path":"rotation"
					}
				},
				{
					"sampler":8,
					"target":{
						"node":3,
						"path":"scale"
					}
				},
				{
					"sampler":9,
					"target":{
						"node":4,
						"path":"translation"
					}
				},
				{
					"sampler":10,
					"target":{
						"node":4,
						"path":"rotation"
					}
				},
				{
					"sampler":11,
					"target":{
						"node":4,
						"path":"scale"
					}
				},
				{
					"sampler":12,
					"target":{
						"node":5,
						"path":"translation"
					}
				},
				{
					"sampler":13,
					"target":{
						"node":5,
						"path":"rotation"
					}
				},
				{
					"sampler":14,
					"target":{
						"node":5,
						"path":"scale"
					}
				},
				{
					"sampler":15,
					"target":{
						"node":6,
						"path":"translation"
					}
				},
				{
					"sampler":16,
					"target":{
						"node":6,
						"path":"rotation"
					}
				},
				{
					"sampler":17,
					"target":{
						"node":6,
						"path":"scale"
					}
				}
			],
			"name":"Walking",
			"samplers":[
				{
					"input":60,
					"interpolation":"LINEAR",
					"output":61
				},
				{
					"input":60,
					"interpolation":"LINEAR",
					"output":62
				},
				{
					"input":60,
					"interpolation":"LINEAR",
					"output":63
				},
				{
					"input":60,
					"interpolation":"LINEAR",
					"output":64
				},
				{
					"input":60,
					"interpolation":"LINEAR",
					"output":65
				},
				{
					"input":60,
					"interpolation":"LINEAR",
					"output":66
				},
				{
					"input":60,
					"interpolation":"LINEAR",
					"output":67
				},
				{
					"input":60,
					"interpolation":"LINEAR",
					"output":68
				},
				{
					"input":60,
					"interpolation":"LINEAR",
					"output":69
				},
				{
					"input":60,
					"interpolation":"LINEAR",
					"output":70
				},
				{
					"input":60,
					"interpolation":"LINEAR",
					"output":71
				},
				{
					"input":60,
					"interpolation":"LINEAR",
					"output":72
				},
				{
					"input":60,
					"interpolation":"LINEAR",
					"output":73
				},
				{
					"input":60,
					"interpolation":"LINEAR",
					"output":74
				},
				{
					"input":60,
					"interpolation":"LINEAR",
					"output":75
				},
				{
					"input":60,
					"interpolation":"LINEAR",
					"output":76
				},
				{
					"input":60,
					"interpolation":"LINEAR",
					"output":77
				},
				{
					"input":60,
					"interpolation":"LINEAR",
					"output":78
				}
			]
		}
	],
	"materials":[
		{
			"doubleSided":true,
			"extensions":{
				"KHR_materials_specular":{
					"specularColorFactor":[
						0,
						0,
						0
					]
				},
				"KHR_materials_ior":{
					"ior":1.4500000476837158
				}
			},
			"name":"Material.001",
			"pbrMetallicRoughness":{
				"baseColorTexture":{
					"index":0
				},
				"metallicFactor":0,
				"roughnessFactor":0.8345454931259155
			}
		}
	],
	"meshes":[
		{
			"name":"Cube.012",
			"primitives":[
				{
					"attributes":{
						"POSITION":0,
						"TEXCOORD_0":1,
						"NORMAL":2,
						"TANGENT":3,
						"JOINTS_0":4,
						"WEIGHTS_0":5
					},
					"indices":6,
					"material":0
				}
			]
		},
		{
			"name":"Cube.006",
			"primitives":[
				{
					"attributes":{
						"POSITION":8,
						"TEXCOORD_0":9,
						"NORMAL":10,
						"TANGENT":11,
						"JOINTS_0":12,
						"WEIGHTS_0":13
					},
					"indices":14,
					"material":0
				}
			]
		},
		{
			"name":"Cube.008",
			"primitives":[
				{
					"attributes":{
						"POSITION":15,
						"TEXCOORD_0":16,
						"NORMAL":17,
						"TANGENT":18,
						"JOINTS_0":19,
						"WEIGHTS_0":20
					},
					"indices":14,
					"material":0
				}
			]
		},
		{
			"name":"Cube.007",
			"primitives":[
				{
					"attributes":{
						"POSITION":21,
						"TEXCOORD_0":22,
						"NORMAL":23,
						"TANGENT":24,
						"JOINTS_0":25,
						"WEIGHTS_0":26
					},
					"indices":27,
					"material":0
				}
			]
		},
		{
			"name":"Cube.009",
			"primitives":[
				{
					"attributes":{
						"POSITION":28,
						"TEXCOORD_0":29,
						"NORMAL":30,
						"TANGENT":31,
						"JOINTS_0":32,
						"WEIGHTS_0":33
					},
					"indices":14,
					"material":0
				}
			]
		},
		{
			"name":"Cube.005",
			"primitives":[
				{
					"attributes":{
						"POSITION":34,
						"TEXCOORD_0":35,
						"NORMAL":36,
						"TANGENT":37,
						"JOINTS_0":38,
						"WEIGHTS_0":39
					},
					"indices":40,
					"material":0
				}
			]
		}
	],
	"textures":[
		{
			"sampler":0,
			"source":0
		}
	],
	"images":[
		{
			"mimeType":"image/png",
			"name":"steve.png.001",
			"uri":"../../Resources/Textures/steve.png"
		}
	],
	"skins":[
		{
			"inverseBindMatrices":7,
			"joints":[
				7,
				2,
				3,
				4,
				5,
				6
			],
			"name":"Armature"
		}
	],
	"accessors":[
		{
			"bufferView":0,
			"componentType":5126,
			"count":24,
			"max":[
				1,
				8,
				1
			],
			"min":[
				-1,
				6,
				-1
			],
			"type":"VEC3"
		},
		{
			"bufferView":1,
			"componentType":5126,
			"count":24,
			"type":"VEC2"
		},
		{
			"bufferView":2,
			"componentType":5126,
			"count":24,
			"type":"VEC3"
		},
		{
			"bufferView":3,
			"componentType":5126,
			"count":24,
			"type":"VEC4"
		},
		{
			"bufferView":4,
			"componentType":5121,
			"count":24,
			"type":"VEC4"
		},
		{
			"bufferView":5,
			"componentType":5126,
			"count":24,
			"type":"VEC4"
		},
		{
			"bufferView":6,
			"componentType":5123,
			"count":36,
			"type":"SCALAR"
		},
		{
			"bufferView":7,
			"componentType":5126,
			"count":6,
			"type":"MAT4"
		},
		{
			"bufferView":8,
			"componentType":5126,
			"count":24,
			"max":[
				0.5,
				6,
				-1
			],
			"min":[
				-0.5,
				3,
				-2
			],
			"type":"VEC3"
		},
		{
			"bufferView":9,
			"componentType":5126,
			"count":24,
			"type":"VEC2"
		},
		{
			"bufferView":10,
			"componentType":5126,
			"count":24,
			"type":"VEC3"
		},
		{
			"bufferView":11,
			"componentType":5126,
			"count":24,
			"type":"VEC4"
		},
		{
			"bufferView":12,
			"componentType":5121,
			"count":24,
			"type":"VEC4"
		},
		{
			"bufferView":13,
			"componentType":5126,
			"count":24,
			"type":"VEC4"
		},
		{
			"bufferView":14,
			"componentType":5123,
			"count":36,
			"type":"SCALAR"
		},
		{
			"bufferView":15,
			"componentType":5126,
			"count":24,
			"max":[
				0.5,
				3,
				0
			],
			"min":[
				-0.5,
				0,
				-1
			],
			"type":"VEC3"
		},
		{
			"bufferView":16,
			"componentType":5126,
			"count":24,
			"type":"VEC2"
		},
		{
			"bufferView":17,
			"componentType":5126,
			"count":24,
			"type":"VEC3"
		},
		{
			"bufferView":18,
			"componentType":5126,
			"count":24,
			"type":"VEC4"
		},
		{
			"bufferView":19,
			"componentType":5121,
			"count":24,
			"type":"VEC4"
		},
		{
			"bufferView":20,
			"componentType":5126,
			"count":24,
			"type":"VEC4"
		},
		{
			"bufferView":21,
			"componentType":5126,
			"count":24,
			"max":[
				0.5,
				6,
				2
			],
			"min":[
				-0.5,
				3,
				1
			],
			"type":"VEC3"
		},
		{
			"bufferView":22,
			"componentType":5126,
			"count":24,
			"type":"VEC2"
		},
		{
			"bufferView":23,
			"componentType":5126,
			"count":24,
			"type":"VEC3"
		},
		{
			"bufferView":24,
			"componentType":5126,
			"count":24,
			"type":"VEC4"
		},
		{
			"bufferView":25,
			"componentType":5121,
			"count":24,
			"type":"VEC4"
		},
		{
			"bufferView":26,
			"componentType":5126,
			"count":24,
			"type":"VEC4"
		},
		{
			"bufferView":27,
			"componentType":5123,
			"count":36,
			"type":"SCALAR"
		},
		{
			"bufferView":28,
			"componentType":5126,
			"count":24,
			"max":[
				0.5,
				3,
				1
			],
			"min":[
				-0.5,
				0,
				0
			],
			"type":"VEC3"
		},
		{
			"bufferView":29,
			"componentType":5126,
			"count":24,
			"type":"VEC2"
		},
		{
			"bufferView":30,
			"componentType":5126,
			"count":24,
			"type":"VEC3"
		},
		{
			"bufferView":31,
			"componentType":5126,
			"count":24,
			"type":"VEC4"
		},
		{
			"bufferView":32,
			"componentType":5121,
			"count":24,
			"type":"VEC4"
		},
		{
			"bufferView":33,
			"componentType":5126,
			"count":24,
			"type":"VEC4"
		},
		{
			"bufferView":34,
			"componentType":5126,
			"count":24,
			"max":[
				0.5,
				6,
				1
			],
			"min":[
				-0.5,
				3,
				-1
			],
			"type":"VEC3"
		},
		{
			"bufferView":35,
			"componentType":5126,
			"count":24,
			"type":"VEC2"
		},
		{
			"bufferView":36,
			"componentType":5126,
			"count":24,
			"type":"VEC3"
		},
		{
			"bufferView":37,
			"componentType":5126,
			"count":24,
			"type":"VEC4"
		},
		{
			"bufferView":38,
			"componentType":5121,
			"count":24,
			"type":"VEC4"
		},
		{
			"bufferView":39,
			"componentType":5126,
			"count":24,
			"type":"VEC4"
		},
		{
			"bufferView":40,
			"componentType":5123,
			"count":36,
			"type":"SCALAR"
		},
		{
			"bufferView":41,
			"componentType":5126,
			"count":120,
			"max":[
				4
			],
			"min":[
				0.03333333333333333
			],
			"type":"SCALAR"
		},
		{
			"bufferView":42,
			"componentType":5126,
			"count":120,
			"type":"VEC3"
		},
		{
			"bufferView":43,
			"componentType":5126,
			"count":120,
			"type":"VEC4"
		},
		{
			"bufferView":44,
			"componentType":5126,
			"count":120,
			"type":"VEC3"
		},
		{
			"bufferView":45,
			"componentType":5126,
			"count":120,
			"type":"VEC3"
		},
		{
			"bufferView":46,
			"componentType":5126,
			"count":120,
			"type":"VEC4"
		},
		{
			"bufferView":47,
			"componentType":5126,
			"count":120,
			"type":"VEC3"
		},
		{
			"bufferView":48,
			"componentType":5126,
			"count":120,
			"type":"VEC3"
		},
		{
			"bufferView":49,
			"componentType":5126,
			"count":120,
			"type":"VEC4"
		},
		{
			"bufferView":50,
			"componentType":5126,
			"count":120,
			"type":"VEC3"
		},
		{
			"bufferView":51,
			"componentType":5126,
			"count":120,
			"type":"VEC3"
		},
		{
			"bufferView":52,
			"componentType":5126,
			"count":120,
			"type":"VEC4"
		},
		{
			"bufferView":53,
			"componentType":5126,
			"count":120,
			"type":"VEC3"
		},
		{
			"bufferView":54,
			"componentType":5126,
			"count":120,
			"type":"VEC3"
		},
		{
			"bufferView":55,
			"componentType":5126,
			"count":120,
			"type":"VEC4"
		},
		{
			"bufferView":56,
			"componentType":5126,
			"count":120,
			"type":"VEC3"
		},
		{
			"bufferView":57,
			"componentType":5126,
			"count":120,
			"type":"VEC3"
		},
		{
			"bufferView":58,
			"componentType":5126,
			"count":120,
			"type":"VEC4"
		},
		{
			"bufferView":59,
			"componentType":5126,
			"count":120,
			"type":"VEC3"
		},
		{
			"bufferView":60,
			"componentType":5126,
			"count":16,
			"max":[
				0.5333333333333333
			],
			"min":[
				0.03333333333333333
			],
			"type":"SCALAR"
		},
		{
			"bufferView":61,
			"componentType":5126,
			"count":16,
			"type":"VEC3"
		},
		{
			"bufferView":62,
			"componentType":5126,
			"count":16,
			"type":"VEC4"
		},
		{
			"bufferView":63,
			"componentType":5126,
			"count":16,
			"type":"VEC3"
		},
		{
			"bufferView":64,
			"componentType":5126,
			"count":16,
			"type":"VEC3"
		},
		{
			"bufferView":65,
			"componentType":5126,
			"count":16,
			"type":"VEC4"
		},
		{
			"bufferView":66,
			"componentType":5126,
			"count":16,
			"type":"VEC3"
		},
		{
			"bufferView":67,
			"componentType":5126,
			"count":16,
			"type":"VEC3"
		},
		{
			"bufferView":68,
			"componentType":5126,
			"count":16,
			"type":"VEC4"
		},
		{
			"bufferView":69,
			"componentType":5126,
			"count":16,
			"type":"VEC3"
		},
		{
			"bufferView":70,
			"componentType":5126,
			"count":16,
			"type":"VEC3"
		},
		{
			"bufferView":71,
			"componentType":5126,
			"count":16,
			"type":"VEC4"
		},
		{
			"bufferView":72,
			"componentType":5126,
			"count":16,
			"type":"VEC3"
		},
		{
			"bufferView":73,
			"componentType":5126,
			"count":16,
			"type":"VEC3"
		},
		{
			"bufferView":74,
			"componentType":5126,
			"count":16,
			"type":"VEC4"
		},
		{
			"bufferView":75,
			"componentType":5126,
			"count":16,
			"type":"VEC3"
		},
		{
			"bufferView":76,
			"componentType":5126,
			"count":16,
			"type":"VEC3"
		},
		{
			"bufferView":77,
			"componentType":5126,
			"count":16,
			"type":"VEC4"
		},
		{
			"bufferView":78,
			"componentType":5126,
			"count":16,
			"type":"VEC3"
		}
	],
	"bufferViews":[
		{
			"buffer":0,
			"byteLength":288,
			"byteOffset":0,
			"target":34962
		},
		{
			"buffer":0,
			"byteLength":192,
			"byteOffset":288,
			"target":34962
		},
		{
			"buffer":0,
			"byteLength":288,
			"byteOffset":480,
			"target":34962
		},
		{
			"buffer":0,
			"byteLength":384,
			"byteOffset":768,
			"target":34962
		},
		{
			"buffer":0,
			"byteLength":96,
			"byteOffset":1152,
			"target":34962
		},
		{
			"buffer":0,
			"byteLength":384,
			"byteOffset":1248,
			"target":34962
		},
		{
			"buffer":0,
			"byteLength":72,
			"byteOffset":1632,
			"target":34963
		},
		{
			"buffer":0,
			"byteLength":384,
			"byteOffset":1704
		},
		{
			"buffer":0,
			"byteLength":288,
			"byteOffset":2088,
			"target":34962
		},
		{
			"buffer":0,
			"byteLength":192,
			"byteOffset":2376,
			"target":34962
		},
		{
			"buffer":0,
			"byteLength":288,
			"byteOffset":2568,
			"target":34962
		},
		{
			"buffer":0,
			"byteLength":384,
			"byteOffset":2856,
			"target":34962
		},
		{
			"buffer":0,
			"byteLength":96,
			"byteOffset":3240,
			"target":34962
		},
		{
			"buffer":0,
			"byteLength":384,
			"byteOffset":3336,
			"target":34962
		},
		{
			"buffer":0,
			"byteLength":72,
			"byteOffset":3720,
			"target":34963
		},
		{
			"buffer":0,
			"byteLength":288,
			"byteOffset":3792,
			"target":34962
		},
		{
			"buffer":0,
			"byteLength":192,
			"byteOffset":4080,
			"target":34962
		},
		{
			"buffer":0,
			"byteLength":288,
			"byteOffset":4272,
			"target":34962
		},
		{
			"buffer":0,
			"byteLength":384,
			"byteOffset":4560,
			"target":34962
		},
		{
			"buffer":0,
			"byteLength":96,
			"byteOffset":4944,
			"target":34962
		},
		{
			"buffer":0,
			"byteLength":384,
			"byteOffset":5040,
			"target":34962
		},
		{
			"buffer":0,
			"byteLength":288,
			"byteOffset":5424,
			"target":34962
		},
		{
			"buffer":0,
			"byteLength":192,
			"byteOffset":5712,
			"target":34962
		},
		{
			"buffer":0,
			"byteLength":288,
			"byteOffset":5904,
			"target":34962
		},
		{
			"buffer":0,
			"byteLength":384,
			"byteOffset":6192,
			"target":34962
		},
		{
			"buffer":0,
			"byteLength":96,
			"byteOffset":6576,
			"target":34962
		},
		{
			"buffer":0,
			"byteLength":384,
			"byteOffset":6672,
			"target":34962
		},
		{
			"buffer":0,
			"byteLength":72,
			"byteOffset":7056,
			"target":34963
		},
		{
			"buffer":0,
			"byteLength":288,
			"byteOffset":7128,
			"target":34962
		},
		{
			"buffer":0,
			"byteLength":192,
			"byteOffset":7416,
			"target":34962
		},
		{
			"buffer":0,
			"byteLength":288,
			"byteOffset":7608,
			"target":34962
		},
		{
			"buffer":0,
			"byteLength":384,
			"byteOffset":7896,
			"target":34962
		},
		{
			"buffer":0,
			"byteLength":96,
			"byteOffset":8280,
			"target":34962
		},
		{
			"buffer":0,
			"byteLength":384,
			"byteOffset":8376,
			"target":34962
		},
		{
			"buffer":0,
			"byteLength":288,
			"byteOffset":8760,
			"target":34962
		},
		{
			"buffer":0,
			"byteLength":192,
			"byteOffset":9048,
			"target":34962
		},
		{
			"buffer":0,
			"byteLength":288,
			"byteOffset":9240,
			"target":34962
		},
		{
			"buffer":0,
			"byteLength":384,
			"byteOffset":9528,
			"target":34962
		},
		{
			"buffer":0,
			"byteLength":96,
			"byteOffset":9912,
			"target":34962
		},
		{
			"buffer":0,
			"byteLength":384,
			"byteOffset":10008,
			"target":34962
		},
		{
			"buffer":0,
			"byteLength":72,
			"byteOffset":10392,
			"target":34963
		},
		{
			"buffer":0,
			"byteLength":480,
			"byteOffset":10464
		},
		{
			"buffer":0,
			"byteLength":1440,
			"byteOffset":10944
		},
		{
			"buffer":0,
			"byteLength":1920,
			"byteOffset":12384
		},
		{
			"buffer":0,
			"byteLength":1440,
			"byteOffset":14304
		},
		{
			"buffer":0,
			"byteLength":1440,
			"byteOffset":15744
		},
		{
			"buffer":0,
			"byteLength":1920,
			"byteOffset":17184
		},
		{
			"buffer":0,
			"byteLength":1440,
			"byteOffset":19104
		},
		{
			"buffer":0,
			"byteLength":1440,
			"byteOffset":20544
		},
		{
			"buffer":0,
			"byteLength":1920,
			"byteOffset":21984
		},
		{
			"buffer":0,
			"byteLength":1440,
			"byteOffset":23904
		},
		{
			"buffer":0,
			"byteLength":1440,
			"byteOffset":25344
		},
		{
			"buffer":0,
			"byteLength":1920,
			"byteOffset":26784
		},
		{
			"buffer":0,
			"byteLength":1440,
			"byteOffset":28704
		},
		{
			"buffer":0,
			"byteLength":1440,
			"byteOffset":30144
		},
		{
			"buffer":0,
			"byteLength":1920,
			"byteOffset":31584
		},
		{
			"buffer":0,
			"byteLength":1440,
			"byteOffset":33504
		},
		{
			"buffer":0,
			"byteLength":1440,
			"byteOffset":34944
		},
		{
			"buffer":0,
			"byteLength":1920,
			"byteOffset":36384
		},
		{
			"buffer":0,
			"byteLength":1440,
			"byteOffset":38304
		},
		{
			"buffer":0,
			"byteLength":64,
			"byteOffset":39744
		},
		{
			"buffer":0,
			"byteLength":192,
			"byteOffset":39808
		},
		{
			"buffer":0,
			"byteLength":256,
			"byteOffset":40000
		},
		{
			"buffer":0,
			"byteLength":192,
			"byteOffset":40256
		},
		{
			"buffer":0,
			"byteLength":192,
			"byteOffset":40448
		},
		{
			"buffer":0,
			"byteLength":256,
			"byteOffset":40640
		},
		{
			"buffer":0,
			"byteLength":192,
			"byteOffset":40896
		},
		{
			"buffer":0,
			"byteLength":192,
			"byteOffset":41088
		},
		{
			"buffer":0,
			"byteLength":256,
			"byteOffset":41280
		},
		{
			"buffer":0,
			"byteLength":192,
			"byteOffset":41536
		},
		{
			"buffer":0,
			"byteLength":192,
			"byteOffset":41728
		},
		{
			"buffer":0,
			"byteLength":256,
			"byteOffset":41920
		},
		{
			"buffer":0,
			"byteLength":192,
			"byteOffset":42176
		},
		{
			"buffer":0,
			"byteLength":192,
			"byteOffset":42368
		},
		{
			"buffer":0,
			"byteLength":256,
			"byteOffset":42560
		},
		{
			"buffer":0,
			"byteLength":192,
			"byteOffset":42816
		},
		{
			"buffer":0,
			"byteLength":192,
			"byteOffset":43008
		},
		{
			"buffer":0,
			"byteLength":256,
			"byteOffset":43200
		},
		{
			"buffer":0,
			"byteLength":192,
			"byteOffset":43456
		}
	],
	"samplers":[
		{
			"magFilter":9728,
			"minFilter":9984
		}
	],
	"buffers":[
		{
			"byteLength":43648,
			"uri":"Steve-cfb5dc02101f5ffae713e7601aec2d14.bin"
		}
	]
}
